<?xml version="1.0" encoding="utf-8"?>
<!-- Generator: Adobe Illustrator 18.0.0, SVG Export Plug-In . SVG Version: 6.00 Build 0)  -->
<!DOCTYPE svg PUBLIC "-//W3C//DTD SVG 1.1//EN" "http://www.w3.org/Graphics/SVG/1.1/DTD/svg11.dtd">
<svg version="1.1" id="Layer_1" xmlns="http://www.w3.org/2000/svg" xmlns:xlink="http://www.w3.org/1999/xlink" x="0px" y="0px"
	 viewBox="0 0 18.3 20" enable-background="new 0 0 18.3 20" xml:space="preserve">
<path fill="#FFFFFF" d="M1.9,9.9v3.9c0,0.8,0.6,1.4,1.4,1.4s1.4-0.6,1.4-1.4V9.9c0-0.8-0.6-1.4-1.4-1.4S1.9,9.1,1.9,9.9z M7.7,9.9
	v3.9c0,0.8,0.6,1.4,1.4,1.4s1.4-0.6,1.4-1.4V9.9c0-0.8-0.6-1.4-1.4-1.4S7.7,9.1,7.7,9.9z M1.4,20h15.4c0.8,0,1.4-0.6,1.4-1.4
	s-0.6-1.4-1.4-1.4H1.4c-0.8,0-1.4,0.6-1.4,1.4S0.6,20,1.4,20z M13.5,9.9v3.9c0,0.8,0.6,1.4,1.4,1.4s1.4-0.6,1.4-1.4V9.9
	c0-0.8-0.6-1.4-1.4-1.4S13.5,9.1,13.5,9.9z M8.3,0.2l-7.6,4C0.3,4.4,0,4.9,0,5.3C0,6,0.5,6.5,1.2,6.5h15.9c0.7,0,1.2-0.5,1.2-1.2
	c0-0.4-0.3-0.9-0.6-1.1l-7.6-4C9.5-0.1,8.8-0.1,8.3,0.2z"/>
</svg>
