<?xml version="1.0" encoding="utf-8"?>
<!-- Generator: Adobe Illustrator 23.0.6, SVG Export Plug-In . SVG Version: 6.00 Build 0)  -->
<svg version="1.1" id="Laag_1" xmlns="http://www.w3.org/2000/svg" xmlns:xlink="http://www.w3.org/1999/xlink" x="0px" y="0px"
	 viewBox="0 0 40 40" style="enable-background:new 0 0 40 40;" xml:space="preserve">
	 <style type="text/css">
	.st0{fill:#FFF;}
</style>
<g>
	<g>
		<polygon class="st0" points="12.6,13.5 21.3,13.5 21.3,14.5 23.5,14.5 23.5,13.4 18.9,10.2 19.6,8.1 10.6,8.1 10.6,25.7 15.5,25.7 15.5,21.1 
			12.6,21.1 12.6,20 15.5,20 15.5,17.7 12.6,17.7 12.6,16.6 15.5,16.6 15.5,14.5 12.6,14.5 		"/>
		<polygon class="st0" points="20.9,8 20.3,9.7 23.8,12.1 		"/>
		<path class="st0" d="M25.6,15.4h-9V33h12.9V20.6l-4.6-3.2L25.6,15.4z M27.3,28.3h-8.8v-1.1h8.8V28.3z M27.3,24.9h-8.8v-1.1h8.8V24.9z
			 M27.3,20.7v1.1h-8.8v-1.1H27.3z"/>
		<polygon class="st0" points="26.9,15.3 26.3,16.9 29.8,19.4 		"/>
	</g>
</g>
<g>
</g>
<g>
</g>
<g>
</g>
<g>
</g>
<g>
</g>
<g>
</g>
<g>
</g>
<g>
</g>
<g>
</g>
<g>
</g>
<g>
</g>
<g>
</g>
<g>
</g>
<g>
</g>
<g>
</g>
</svg>
