<?xml version="1.0" encoding="utf-8"?>
<!-- Generator: Adobe Illustrator 18.0.0, SVG Export Plug-In . SVG Version: 6.00 Build 0)  -->
<!DOCTYPE svg PUBLIC "-//W3C//DTD SVG 1.1//EN" "http://www.w3.org/Graphics/SVG/1.1/DTD/svg11.dtd">
<svg version="1.1" id="Layer_1" xmlns="http://www.w3.org/2000/svg" xmlns:xlink="http://www.w3.org/1999/xlink" x="0px" y="0px"
	 viewBox="0 0 18 16.2" enable-background="new 0 0 18 16.2" xml:space="preserve">
<path fill="#FFFFFF" d="M7.2,11.7v-0.9H0.9l0,3.6c0,1,0.8,1.8,1.8,1.8h12.6c1,0,1.8-0.8,1.8-1.8v-3.6h-6.3v0.9H7.2z M16.2,3.6h-3.6
	V1.8L10.8,0H7.2L5.4,1.8v1.8H1.8C0.8,3.6,0,4.4,0,5.4v2.7c0,1,0.8,1.8,1.8,1.8h5.4V8.1h3.6v1.8h5.4c1,0,1.8-0.8,1.8-1.8V5.4
	C18,4.4,17.2,3.6,16.2,3.6z M10.8,3.6H7.2V1.8h3.6V3.6z"/>
</svg>
