<?xml version="1.0" encoding="utf-8"?>
<!-- Generator: Adobe Illustrator 18.0.0, SVG Export Plug-In . SVG Version: 6.00 Build 0)  -->
<!DOCTYPE svg PUBLIC "-//W3C//DTD SVG 1.1//EN" "http://www.w3.org/Graphics/SVG/1.1/DTD/svg11.dtd">
<svg version="1.1" id="Layer_1" xmlns="http://www.w3.org/2000/svg" xmlns:xlink="http://www.w3.org/1999/xlink" x="0px" y="0px"
	 viewBox="0 0 20 24.2" enable-background="new 0 0 20 24.2" xml:space="preserve">
<g>
	<path fill="#09C4C9" d="M1.6,1.6h11.7v1.2h1.6v-2c0-0.4-0.4-0.8-0.8-0.8H0.8C0.4,0,0,0.4,0,0.8v18.5c0,0.4,0.4,0.8,0.8,0.8h2.9
		v-1.6H1.6V1.6z"/>
	<path fill="#09C4C9" d="M19.2,4.1H5.9c-0.4,0-0.8,0.4-0.8,0.8v18.5c0,0.4,0.4,0.8,0.8,0.8h13.4c0.4,0,0.8-0.4,0.8-0.8V4.9
		C20,4.5,19.6,4.1,19.2,4.1z M18.4,22.6H6.7V5.7h11.7V22.6z"/>
	<path fill="#09C4C9" d="M8.6,11h7.1c0.4,0,0.8-0.4,0.8-0.8c0-0.4-0.4-0.8-0.8-0.8H8.6c-0.4,0-0.8,0.4-0.8,0.8
		C7.8,10.6,8.2,11,8.6,11z"/>
	<path fill="#09C4C9" d="M8.6,14.1h7.1c0.4,0,0.8-0.4,0.8-0.8c0-0.4-0.4-0.8-0.8-0.8H8.6c-0.4,0-0.8,0.4-0.8,0.8
		C7.8,13.8,8.2,14.1,8.6,14.1z"/>
	<path fill="#09C4C9" d="M8.6,17.3h5.1c0.4,0,0.8-0.4,0.8-0.8s-0.4-0.8-0.8-0.8H8.6c-0.4,0-0.8,0.4-0.8,0.8S8.2,17.3,8.6,17.3z"/>
</g>
</svg>
