<?xml version="1.0" encoding="utf-8"?>
<!-- Generator: Adobe Illustrator 22.1.0, SVG Export Plug-In . SVG Version: 6.00 Build 0)  -->
<svg version="1.1" id="Laag_1" xmlns="http://www.w3.org/2000/svg" xmlns:xlink="http://www.w3.org/1999/xlink" x="0px" y="0px"
	 viewBox="0 0 40 40" style="enable-background:new 0 0 40 40;" xml:space="preserve">
<style type="text/css">
	.st0{fill:#FFFFFF;}
</style>
<g>
	<path d="M11.9,6.1c6.1,0,12.2,0,18.3,0c0.5,0.2,0.6,0.6,0.6,1.1c0,8.6,0,17.1,0,25.7c0,0.7-0.3,1-1,1c-5.8,0-11.6,0-17.4,0
		c-0.8,0-1.1-0.3-1.1-1.1c0-8.5,0-17.1,0-25.6C11.3,6.7,11.4,6.3,11.9,6.1z M22.7,14.4c-1.3,0-2.7,0-4,0c-0.6,0-0.9,0.3-0.9,0.8
		c0,0.5,0.4,0.8,0.9,0.8c2.6,0,5.3,0,7.9,0c0.5,0,0.9-0.3,0.9-0.8c0-0.5-0.4-0.8-0.9-0.8C25.3,14.4,24,14.4,22.7,14.4z M22.7,19.2
		c1.3,0,2.7,0,4,0c0.5,0,0.9-0.3,0.9-0.8c0-0.5-0.4-0.8-0.9-0.8c-0.2,0-0.3,0-0.5,0c-2.5,0-5,0-7.5,0c-0.4,0-0.7,0.1-0.8,0.5
		c-0.3,0.6,0.1,1.2,0.8,1.2C20,19.2,21.4,19.2,22.7,19.2z M22.7,24.1c-1.3,0-2.6,0-4,0c-0.5,0-0.9,0.3-0.9,0.8
		c0,0.5,0.4,0.8,0.9,0.8c2.6,0,5.3,0,7.9,0c0.6,0,0.9-0.3,0.9-0.8c0-0.5-0.4-0.8-0.9-0.8C25.3,24.1,24,24.1,22.7,24.1z M22.7,12.7
		C22.7,12.7,22.7,12.7,22.7,12.7c1.4,0,2.7,0,4.1,0c0.5,0,0.8-0.4,0.8-0.8c0-0.4-0.4-0.8-0.8-0.8c-2.7,0-5.4,0-8.1,0
		c-0.3,0-0.5,0.1-0.7,0.4c-0.2,0.3-0.2,0.5,0,0.8c0.2,0.3,0.4,0.4,0.8,0.4C20,12.7,21.3,12.7,22.7,12.7z M22.7,20.9
		C22.7,20.9,22.7,20.9,22.7,20.9c-1.3,0-2.7,0-4,0c-0.5,0-0.8,0.4-0.8,0.8c0,0.4,0.4,0.8,0.8,0.8c2.7,0,5.4,0,8.1,0
		c0.4,0,0.6-0.2,0.8-0.5c0.2-0.5-0.2-1.1-0.8-1.1C25.4,20.9,24,20.9,22.7,20.9z M24.3,29c-0.8,0-1.6,0-2.3,0c-0.5,0-0.9,0.3-0.9,0.8
		c0,0.5,0.4,0.8,0.9,0.8c1.6,0,3.1,0,4.7,0c0.5,0,0.9-0.3,0.9-0.8c0-0.5-0.4-0.8-0.9-0.8C25.9,29,25.1,29,24.3,29z M15.4,12.7
		c0.4,0,0.8-0.4,0.8-0.8c0-0.4-0.4-0.8-0.8-0.8c-0.4,0-0.8,0.4-0.8,0.8C14.6,12.4,14.9,12.7,15.4,12.7z M16.2,21.7
		c0-0.4-0.4-0.8-0.8-0.8c-0.4,0-0.8,0.4-0.8,0.8c0,0.4,0.4,0.8,0.8,0.8C15.8,22.5,16.2,22.1,16.2,21.7z M16.2,15.2
		c0-0.4-0.4-0.8-0.8-0.8c-0.4,0-0.8,0.4-0.8,0.8c0,0.4,0.4,0.8,0.8,0.8C15.8,16,16.2,15.6,16.2,15.2z M15.4,19.2
		c0.4,0,0.8-0.4,0.8-0.8c0-0.4-0.4-0.8-0.8-0.8c-0.4,0-0.8,0.4-0.8,0.8C14.6,18.9,14.9,19.2,15.4,19.2z M15.4,25.7
		c0.4,0,0.8-0.4,0.8-0.8c0-0.4-0.4-0.8-0.8-0.8c-0.4,0-0.8,0.4-0.8,0.8C14.6,25.4,14.9,25.7,15.4,25.7z"/>
	<path class="st0" d="M22.7,14.4c1.3,0,2.6,0,3.9,0c0.6,0,0.9,0.3,0.9,0.8c0,0.5-0.4,0.8-0.9,0.8c-2.6,0-5.3,0-7.9,0
		c-0.5,0-0.9-0.3-0.9-0.8c0-0.5,0.4-0.8,0.9-0.8C20.1,14.4,21.4,14.4,22.7,14.4z"/>
	<path class="st0" d="M22.7,19.2c-1.3,0-2.7,0-4,0c-0.7,0-1.1-0.6-0.8-1.2c0.2-0.3,0.5-0.5,0.8-0.5c2.5,0,5,0,7.5,0
		c0.2,0,0.3,0,0.5,0c0.5,0,0.9,0.3,0.9,0.8c0,0.5-0.4,0.8-0.9,0.8C25.4,19.2,24,19.2,22.7,19.2z"/>
	<path class="st0" d="M22.7,24.1c1.3,0,2.6,0,4,0c0.6,0,0.9,0.3,0.9,0.8c0,0.5-0.4,0.8-0.9,0.8c-2.6,0-5.3,0-7.9,0
		c-0.5,0-0.9-0.3-0.9-0.8c0-0.5,0.4-0.8,0.9-0.8C20.1,24.1,21.4,24.1,22.7,24.1z"/>
	<path class="st0" d="M22.7,12.7c-1.3,0-2.7,0-4,0c-0.3,0-0.6-0.1-0.8-0.4c-0.1-0.3-0.1-0.6,0-0.8c0.2-0.2,0.4-0.4,0.7-0.4
		c2.7,0,5.4,0,8.1,0c0.5,0,0.8,0.4,0.8,0.8c0,0.5-0.3,0.8-0.8,0.8C25.4,12.7,24,12.7,22.7,12.7C22.7,12.7,22.7,12.7,22.7,12.7z"/>
	<path class="st0" d="M22.7,20.9c1.3,0,2.7,0,4,0c0.6,0,1,0.6,0.8,1.1c-0.1,0.3-0.4,0.5-0.8,0.5c-2.7,0-5.4,0-8.1,0
		c-0.5,0-0.8-0.4-0.8-0.8c0-0.5,0.4-0.8,0.8-0.8C20,20.9,21.4,20.9,22.7,20.9C22.7,20.9,22.7,20.9,22.7,20.9z"/>
	<path class="st0" d="M24.3,29c0.8,0,1.6,0,2.4,0c0.5,0,0.9,0.3,0.9,0.8c0,0.5-0.4,0.8-0.9,0.8c-1.6,0-3.1,0-4.7,0
		c-0.5,0-0.9-0.3-0.9-0.8c0-0.5,0.4-0.8,0.9-0.8C22.8,29,23.5,29,24.3,29z"/>
	<path class="st0" d="M15.4,12.7c-0.4,0-0.8-0.4-0.8-0.8c0-0.4,0.4-0.8,0.8-0.8c0.4,0,0.8,0.4,0.8,0.8
		C16.2,12.4,15.8,12.7,15.4,12.7z"/>
	<path class="st0" d="M16.2,21.7c0,0.4-0.4,0.8-0.8,0.8c-0.4,0-0.8-0.4-0.8-0.8c0-0.4,0.4-0.8,0.8-0.8
		C15.8,20.9,16.2,21.2,16.2,21.7z"/>
	<path class="st0" d="M16.2,15.2c0,0.4-0.4,0.8-0.8,0.8c-0.4,0-0.8-0.4-0.8-0.8c0-0.4,0.4-0.8,0.8-0.8
		C15.8,14.4,16.2,14.7,16.2,15.2z"/>
	<path class="st0" d="M15.4,19.2c-0.4,0-0.8-0.4-0.8-0.8c0-0.4,0.4-0.8,0.8-0.8c0.4,0,0.8,0.4,0.8,0.8
		C16.2,18.9,15.8,19.2,15.4,19.2z"/>
	<path class="st0" d="M15.4,25.7c-0.4,0-0.8-0.4-0.8-0.8c0-0.4,0.4-0.8,0.8-0.8c0.4,0,0.8,0.4,0.8,0.8
		C16.2,25.4,15.8,25.7,15.4,25.7z"/>
</g>
<g>
</g>
<g>
</g>
<g>
</g>
<g>
</g>
<g>
</g>
<g>
</g>
</svg>
