<?xml version="1.0" encoding="utf-8"?>
<!-- Generator: Adobe Illustrator 23.0.6, SVG Export Plug-In . SVG Version: 6.00 Build 0)  -->
<svg version="1.1" id="Laag_1" xmlns="http://www.w3.org/2000/svg" xmlns:xlink="http://www.w3.org/1999/xlink" x="0px" y="0px"
	 viewBox="0 0 40 40" style="enable-background:new 0 0 40 40;" xml:space="preserve">
	 <style type="text/css">
	.st0{fill:#FFF;}
</style>
<g>
	<g>
		<polygon class="st0" points="27.9,21.6 26.5,21.6 26.5,26.2 30.4,26.2 30.4,24.8 27.9,24.8 		"/>
		<path class="st0" d="M27.2,19.2c-1.5,0-2.9,0.6-4,1.6l-0.2-0.1l-1.4-1.2l-2.5,2.5l-2.5-2.5l-1.4,1.2l-3,1.4c-0.4,0.2-0.8,0.5-1.1,0.9l-4.3,7.1
			h17.3c0.9,0.6,1.9,0.9,3.1,0.9c3.2,0,5.9-2.6,5.9-5.9S30.5,19.2,27.2,19.2z M27.2,29.3c-2.3,0-4.1-1.9-4.1-4.1s1.9-4.1,4.1-4.1
			s4.1,1.9,4.1,4.1S29.5,29.3,27.2,29.3z"/>
		<path class="st0" d="M19.1,19.8L19.1,19.8C19.1,19.8,19.1,19.8,19.1,19.8C19.1,19.8,19.1,19.8,19.1,19.8C19.1,19.8,19.1,19.8,19.1,19.8
			C19.1,19.8,19.1,19.8,19.1,19.8C19.1,19.8,19.2,19.8,19.1,19.8C19.2,19.8,19.2,19.8,19.1,19.8L19.1,19.8c3.5,0.1,5.6-3,5.7-8
			c0-3.5-2.1-5.5-5.7-5.6v0c0,0,0,0,0,0v0c0,0,0,0,0,0c0,0,0,0,0,0v0c0,0,0,0,0,0v0c-3.5,0.1-5.7,2.1-5.7,5.6
			C13.5,16.8,15.6,19.8,19.1,19.8z"/>
	</g>
</g>
<g>
</g>
<g>
</g>
<g>
</g>
<g>
</g>
<g>
</g>
<g>
</g>
<g>
</g>
<g>
</g>
<g>
</g>
<g>
</g>
<g>
</g>
<g>
</g>
<g>
</g>
<g>
</g>
<g>
</g>
</svg>
