<?xml version="1.0" encoding="utf-8"?>
<!-- Generator: Adobe Illustrator 23.0.6, SVG Export Plug-In . SVG Version: 6.00 Build 0)  -->
<svg version="1.1" id="Laag_1" xmlns="http://www.w3.org/2000/svg" xmlns:xlink="http://www.w3.org/1999/xlink" x="0px" y="0px"
	 viewBox="0 0 40 40" style="enable-background:new 0 0 40 40;" xml:space="preserve">
	  <style type="text/css">
	.st0{fill:#FFF;}
</style>
<g>
	<path class="st0" d="M20,7.5C13.1,7.5,7.5,13.1,7.5,20S13.1,32.5,20,32.5S32.5,26.9,32.5,20S26.9,7.5,20,7.5z M25.9,25.9
		c-0.7,0.7-1.5,1.2-2.4,1.6l-0.6,0.3l-1.2-2.7l0.6-0.3c0.6-0.2,1.1-0.6,1.5-1c0.9-1,1.5-2.2,1.5-3.6c0-1.3-0.5-2.6-1.5-3.6
		c-0.9-1-2.2-1.5-3.6-1.5c-1.3,0-2.6,0.5-3.6,1.5c-1.7,1.7-1.9,4.4-0.6,6.4l2.1-2.1l0,6.5h-6.5l2.2-2.2c-2.5-3.2-2.3-7.7,0.6-10.6
		c1.5-1.5,3.5-2.3,5.7-2.3c2.1,0,4.1,0.8,5.7,2.3C29,17.7,29,22.7,25.9,25.9z"/>
</g>
<g>
</g>
<g>
</g>
<g>
</g>
<g>
</g>
<g>
</g>
<g>
</g>
<g>
</g>
<g>
</g>
<g>
</g>
<g>
</g>
<g>
</g>
<g>
</g>
<g>
</g>
<g>
</g>
<g>
</g>
</svg>
