<?xml version="1.0" encoding="utf-8"?>
<!-- Generator: Adobe Illustrator 18.0.0, SVG Export Plug-In . SVG Version: 6.00 Build 0)  -->
<!DOCTYPE svg PUBLIC "-//W3C//DTD SVG 1.1//EN" "http://www.w3.org/Graphics/SVG/1.1/DTD/svg11.dtd">
<svg version="1.1" id="Layer_1" xmlns="http://www.w3.org/2000/svg" xmlns:xlink="http://www.w3.org/1999/xlink" x="0px" y="0px"
	 viewBox="0 0 18 14.4" enable-background="new 0 0 18 14.4" xml:space="preserve">
<path fill="#FFFFFF" d="M16.2,0H1.8C0.8,0,0,0.8,0,1.8l0,10.8c0,1,0.8,1.8,1.8,1.8h14.4c1,0,1.8-0.8,1.8-1.8V1.8
	C18,0.8,17.2,0,16.2,0z M15.8,3.8l-6.4,4C9.2,8,8.8,8,8.5,7.8l-6.4-4C1.9,3.7,1.8,3.4,1.8,3.2c0-0.6,0.7-1,1.2-0.6l6,3.8l6-3.8
	c0.5-0.3,1.2,0,1.2,0.6C16.2,3.4,16.1,3.7,15.8,3.8z"/>
</svg>
