<?xml version="1.0" encoding="utf-8"?>
<!-- Generator: Adobe Illustrator 18.0.0, SVG Export Plug-In . SVG Version: 6.00 Build 0)  -->
<!DOCTYPE svg PUBLIC "-//W3C//DTD SVG 1.1//EN" "http://www.w3.org/Graphics/SVG/1.1/DTD/svg11.dtd">
<svg version="1.1" id="Layer_1" xmlns="http://www.w3.org/2000/svg" xmlns:xlink="http://www.w3.org/1999/xlink" x="0px" y="0px"
	 viewBox="0 0 14.4 18" enable-background="new 0 0 14.4 18" xml:space="preserve">
<path fill="#FFFFFF" d="M7.2,18c0.9,0,1.7-0.7,1.7-1.7H5.5C5.5,17.3,6.3,18,7.2,18z M14.1,14.1L13,13V8c0-2.8-2-5.1-4.6-5.7v-1
	C8.4,0.6,7.9,0,7.2,0S5.9,0.6,5.9,1.3v1C3.3,2.8,1.3,5.1,1.3,8v5l-1.1,1.1c-0.5,0.5-0.2,1.4,0.6,1.4h12.7
	C14.3,15.5,14.7,14.6,14.1,14.1z M8,12.1H6.4v-1.7H8V12.1z M8,8c0,0.5-0.4,0.8-0.8,0.8C6.7,8.8,6.4,8.4,6.4,8V6.3
	c0-0.5,0.4-0.8,0.8-0.8C7.6,5.4,8,5.8,8,6.3V8z"/>
</svg>
