<?xml version="1.0" encoding="utf-8"?>
<!-- Generator: Adobe Illustrator 22.1.0, SVG Export Plug-In . SVG Version: 6.00 Build 0)  -->
<svg version="1.1" id="Laag_1" xmlns="http://www.w3.org/2000/svg" xmlns:xlink="http://www.w3.org/1999/xlink" x="0px" y="0px"
	 viewBox="0 0 40 40" style="enable-background:new 0 0 40 40;" xml:space="preserve">
<style type="text/css">
	.st0{fill:#FFF;}
</style>
<g>
	<g>
		<path class="st0" d="M19.1,26c-3.1,0-5.7-2.5-5.7-5.7c0-3,2.3-5.4,5.2-5.7V6.2C11.1,6.4,5,12.7,5,20.3c0,7.8,6.3,14.1,14.1,14.1
			c3.7,0,7-1.4,9.5-3.7l-5.8-6.1C21.8,25.5,20.5,26,19.1,26z"/>
		<path class="st0" d="M26.6,21.3c-0.1,1.5-0.9,2.9-2,3.8l5.8,6.1c2.7-2.5,4.4-6,4.6-9.9L26.6,21.3z"/>
		<path class="st0" d="M25.6,19.8c0,0.2,0,0.4,0,0.5l8.4,0c0-0.2,0-0.3,0-0.5C34.1,12,27.7,5.6,20,5.6c-0.2,0-0.3,0-0.5,0v8.4
			c0.2,0,0.3,0,0.5,0C23.1,14.1,25.6,16.6,25.6,19.8z"/>
	</g>
</g>
<g>
</g>
<g>
</g>
<g>
</g>
<g>
</g>
<g>
</g>
<g>
</g>
</svg>
