<?xml version="1.0" encoding="utf-8"?>
<!-- Generator: Adobe Illustrator 18.0.0, SVG Export Plug-In . SVG Version: 6.00 Build 0)  -->
<!DOCTYPE svg PUBLIC "-//W3C//DTD SVG 1.1//EN" "http://www.w3.org/Graphics/SVG/1.1/DTD/svg11.dtd">
<svg version="1.1" id="Layer_1" xmlns="http://www.w3.org/2000/svg" xmlns:xlink="http://www.w3.org/1999/xlink" x="0px" y="0px"
	 viewBox="0 0 18 18" enable-background="new 0 0 18 18" xml:space="preserve">
<path fill="#FFFFFF" d="M15.9,9.9c0-0.3,0.1-0.6,0.1-0.9s0-0.6-0.1-0.9l2-1.5C18,6.5,18,6.3,17.9,6.1l-1.9-3.1
	c-0.1-0.2-0.4-0.3-0.6-0.2l-2.3,0.9c-0.5-0.4-1-0.7-1.6-0.9l-0.3-2.4c0-0.2-0.2-0.4-0.5-0.4H7.1C6.9,0,6.7,0.2,6.7,0.4L6.4,2.8
	C5.8,3,5.3,3.3,4.8,3.6L2.5,2.7C2.3,2.7,2,2.7,1.9,2.9L0.1,6.1C0,6.3,0,6.5,0.2,6.6l2,1.5c0,0.3-0.1,0.6-0.1,0.9s0,0.6,0.1,0.9
	l-2,1.5C0,11.5,0,11.7,0.1,11.9l1.9,3.1c0.1,0.2,0.4,0.3,0.6,0.2l2.3-0.9c0.5,0.4,1,0.7,1.6,0.9l0.3,2.4c0,0.2,0.2,0.4,0.5,0.4h3.7
	c0.2,0,0.4-0.2,0.5-0.4l0.3-2.4c0.6-0.2,1.1-0.5,1.6-0.9l2.3,0.9c0.2,0.1,0.5,0,0.6-0.2l1.9-3.1c0.1-0.2,0.1-0.4-0.1-0.6L15.9,9.9z
	 M9,12.4c-1.9,0-3.5-1.5-3.5-3.4S7.1,5.6,9,5.6s3.5,1.5,3.5,3.4S10.9,12.4,9,12.4z"/>
</svg>
