<?xml version="1.0" encoding="utf-8"?>
<!-- Generator: Adobe Illustrator 23.0.6, SVG Export Plug-In . SVG Version: 6.00 Build 0)  -->
<svg version="1.1" id="Laag_1" xmlns="http://www.w3.org/2000/svg" xmlns:xlink="http://www.w3.org/1999/xlink" x="0px" y="0px"
	 viewBox="0 0 40 40" style="enable-background:new 0 0 40 40;" xml:space="preserve">
	 <style type="text/css">
	.st0{fill:#FFF;}
</style>
<g>
	<g id="Layer_1_14_">
		<g>
			<g>
				<g>
					<path class="st0" d="M20.3,6.6c-5.9,0-10.7,1.7-10.7,3.9v3.2c0,2.2,4.8,3.9,10.7,3.9c5.9,0,10.7-1.7,10.7-3.9v-3.2
						C31,8.3,26.2,6.6,20.3,6.6z"/>
				</g>
			</g>
			<g>
				<g>
					<path class="st0" d="M20.3,19.4c-5.6,0-10.3-1.6-10.7-3.6c0,0.1,0,5.3,0,5.3c0,2.2,4.8,3.9,10.7,3.9c5.9,0,10.7-1.7,10.7-3.9
						c0,0,0-5.2,0-5.3C30.6,17.8,25.9,19.4,20.3,19.4z"/>
				</g>
			</g>
			<path class="st0" d="M31,23.3c-0.4,2-5,3.6-10.7,3.6s-10.3-1.6-10.7-3.6l0,5.3c0,2.2,4.8,3.9,10.7,3.9c5.9,0,10.7-1.7,10.7-3.9L31,23.3z"/>
		</g>
	</g>
</g>
<g>
</g>
<g>
</g>
<g>
</g>
<g>
</g>
<g>
</g>
<g>
</g>
<g>
</g>
<g>
</g>
<g>
</g>
<g>
</g>
<g>
</g>
<g>
</g>
<g>
</g>
<g>
</g>
<g>
</g>
</svg>
