<?xml version="1.0" encoding="utf-8"?>
<!-- Generator: Adobe Illustrator 18.0.0, SVG Export Plug-In . SVG Version: 6.00 Build 0)  -->
<!DOCTYPE svg PUBLIC "-//W3C//DTD SVG 1.1//EN" "http://www.w3.org/Graphics/SVG/1.1/DTD/svg11.dtd">
<svg version="1.1" id="Layer_1" xmlns="http://www.w3.org/2000/svg" xmlns:xlink="http://www.w3.org/1999/xlink" x="0px" y="0px"
	 viewBox="0 0 40 40" enable-background="new 0 0 40 40" xml:space="preserve">
<g>
	<circle fill="#F2F2F2" cx="20" cy="20" r="20"/>
	<path fill="#808080" d="M10.8,29.3c0-0.6,0-0.8,0-1c0-5.1,0-10.2,0-15.3c0-1.7,0.6-2.3,2.3-2.3c4.7,0,9.4,0,14,0
		c1.6,0,2.2,0.7,2.2,2.3c0,3.4,0,6.9,0,10.3c0,1.6-0.7,2.3-2.3,2.3c-3.9,0-7.8,0-11.7,0c-0.5,0-1.1,0.3-1.5,0.6
		C12.8,27.1,11.9,28.1,10.8,29.3z M25.5,14.5c-3.8,0-7.4,0-11.1,0c0,0.6,0,1.1,0,1.7c3.7,0,7.4,0,11.1,0
		C25.5,15.6,25.5,15.1,25.5,14.5z M14.5,19c3.8,0,7.4,0,11.1,0c0-0.6,0-1.1,0-1.7c-3.7,0-7.4,0-11.1,0C14.5,17.8,14.5,18.4,14.5,19z
		 M14.5,21.8c3.7,0,7.4,0,11.1,0c0-0.6,0-1.1,0-1.7c-3.7,0-7.4,0-11.1,0C14.5,20.6,14.5,21.2,14.5,21.8z"/>
</g>
</svg>
