<?xml version="1.0" encoding="utf-8"?>
<!-- Generator: Adobe Illustrator 18.0.0, SVG Export Plug-In . SVG Version: 6.00 Build 0)  -->
<!DOCTYPE svg PUBLIC "-//W3C//DTD SVG 1.1//EN" "http://www.w3.org/Graphics/SVG/1.1/DTD/svg11.dtd">
<svg version="1.1" id="Layer_1" xmlns="http://www.w3.org/2000/svg" xmlns:xlink="http://www.w3.org/1999/xlink" x="0px" y="0px"
	 viewBox="0 0 40 40" enable-background="new 0 0 40 40" xml:space="preserve">
<g>
	<path fill="#F2F2F2" d="M20,0C9,0,0,9,0,20s9,20,20,20s20-9,20-20S31,0,20,0z"/>
	<rect x="18.5" y="27.6" fill="#999999" width="3" height="3"/>
	<path fill="#999999" d="M20,9.3c-3.4,0-6.1,2.7-6.1,6.1h3c0-1.7,1.4-3,3-3c1.7,0,3,1.4,3,3c0,0.8-0.3,1.6-0.9,2.1l-1.9,1.9
		c-1.1,1.1-1.8,2.6-1.8,4.3v0.8h3c0-2.3,0.7-3.2,1.8-4.3l1.4-1.4c0.9-0.9,1.4-2.1,1.4-3.4C26.1,12.1,23.4,9.3,20,9.3z"/>
</g>
</svg>
